<svg width="150" height="150" viewBox="0 0 150 150" fill="none"
  xmlns="http://www.w3.org/2000/svg">
  <circle cx="75" cy="75" r="75" fill="#F7F7F7"/>
  <path d="M93.2102 54.5C92.786 50.5303 90.9981 47.4394 87.8466 45.2273C84.7254 43.0151 80.6648 41.9091 75.6648 41.9091C72.1496 41.9091 69.1345 42.4394 66.6193 43.5C64.1042 44.5606 62.1799 46 60.8466 47.8182C59.5133 49.6364 58.8314 51.7121 58.8011 54.0454C58.8011 55.9848 59.2405 57.6667 60.1193 59.0909C61.0284 60.5151 62.2557 61.7273 63.8011 62.7273C65.3466 63.697 67.0587 64.5151 68.9375 65.1818C70.8163 65.8485 72.7102 66.4091 74.6193 66.8636L83.3466 69.0454C86.8617 69.8636 90.2405 70.9697 93.4829 72.3636C96.7557 73.7576 99.6799 75.5151 102.256 77.6364C104.862 79.7576 106.922 82.3182 108.437 85.3182C109.953 88.3182 110.71 91.8333 110.71 95.8636C110.71 101.318 109.316 106.121 106.528 110.273C103.741 114.394 99.7102 117.621 94.4375 119.955C89.1951 122.258 82.8466 123.409 75.392 123.409C68.1496 123.409 61.8617 122.288 56.5284 120.045C51.2254 117.803 47.0739 114.53 44.0739 110.227C41.1042 105.924 39.4981 100.682 39.2557 94.5H55.8466C56.089 97.7424 57.089 100.439 58.8466 102.591C60.6042 104.742 62.892 106.348 65.7102 107.409C68.5587 108.47 71.7405 109 75.2557 109C78.9223 109 82.1345 108.455 84.892 107.364C87.6799 106.242 89.8617 104.697 91.4375 102.727C93.0133 100.727 93.8163 98.3939 93.8466 95.7273C93.8163 93.303 93.1042 91.303 91.7102 89.7273C90.3163 88.1212 88.3617 86.7879 85.8466 85.7273C83.3617 84.6364 80.4526 83.6667 77.1193 82.8182L66.5284 80.0909C58.8617 78.1212 52.8011 75.1364 48.3466 71.1364C43.9223 67.1061 41.7102 61.7576 41.7102 55.0909C41.7102 49.606 43.1951 44.803 46.1648 40.6818C49.1648 36.5606 53.2405 33.3636 58.392 31.0909C63.5436 28.7879 69.3769 27.6364 75.892 27.6364C82.4981 27.6364 88.286 28.7879 93.2557 31.0909C98.2557 33.3636 102.18 36.5303 105.028 40.5909C107.877 44.6212 109.347 49.2576 109.437 54.5H93.2102Z" fill="#222222"/>
  <path fill-rule="evenodd" clip-rule="evenodd" d="M87.8466 45.2273C90.9982 47.4394 92.786 50.5303 93.2103 54.5H109.438C109.347 49.2576 107.877 44.6212 105.028 40.5909C104.402 39.6977 103.723 38.8478 102.993 38.0411L149.409 84.4578C145.083 118.839 117.484 145.974 82.8873 149.59L47.8853 114.588C50.3104 116.815 53.1914 118.634 56.5285 120.045C61.8618 122.288 68.1497 123.409 75.3921 123.409C82.8466 123.409 89.1951 122.258 94.4375 119.955C99.7103 117.621 103.741 114.394 106.528 110.273C109.316 106.121 110.71 101.318 110.71 95.8636C110.71 91.8333 109.953 88.3182 108.438 85.3182C106.922 82.3182 104.862 79.7576 102.256 77.6364C99.68 75.5151 96.7557 73.7576 93.483 72.3636C90.2406 70.9697 86.8618 69.8636 83.3466 69.0454L74.6194 66.8636C72.7103 66.4091 70.8163 65.8485 68.9375 65.1818C67.0588 64.5151 65.3466 63.697 63.8012 62.7273C62.2557 61.7273 61.0285 60.5151 60.1194 59.0909C59.2406 57.6667 58.8012 55.9848 58.8012 54.0454C58.8315 51.7121 59.5133 49.6364 60.8466 47.8182C62.18 46 64.1042 44.5606 66.6194 43.5C69.1345 42.4394 72.1497 41.9091 75.6648 41.9091C80.6648 41.9091 84.7254 43.0151 87.8466 45.2273Z" fill="#232323" fill-opacity="0.1"/>
</svg>
